<?xml version="1.0" standalone="no"?>
<svg xmlns="http://www.w3.org/2000/svg" viewBox="0 0 120.244 29" width="120.244" height="29"><g fill="#ead017" color="#ead017" transform="translate(0, 0) scale(0.4833334)"><svg width="60.0" height="60.0" x="0.0" y="0.0" viewBox="0 0 60 60"><rect x="-14" y="-13" display="none" fill="currentColor" width="198" height="87"></rect><g><path d="M57.513,2.72H2.487C1.112,2.72,0,3.833,0,5.207v49.586c0,1.374,1.112,2.487,2.487,2.487h55.026   c1.375,0,2.487-1.113,2.487-2.487V5.207C60,3.833,58.888,2.72,57.513,2.72z M56.036,53.549H3.964V8.938h52.072V53.549z"></path><rect x="24.171" y="31.321" width="11.658" height="1.865"></rect><polygon points="12.547,32.254 19.45,25.352 19.474,25.375 20.768,24.035 20.792,24.011 12.547,15.816 11.228,17.132    18.131,24.035 11.228,30.935  "></polygon></g><g><path d="M107.342,10.918H70.658c-0.917,0-1.658,0.742-1.658,1.658v33.057c0,0.917,0.742,1.658,1.658,1.658h36.684   c0.917,0,1.658-0.741,1.658-1.658V12.576C109,11.66,108.258,10.918,107.342,10.918z M106.357,44.804H71.643V15.063h34.715V44.804z"></path><rect x="85.114" y="29.985" width="7.772" height="1.244"></rect><polygon points="77.365,30.607 81.966,26.005 81.982,26.021 82.846,25.128 82.862,25.112 77.365,19.648 76.485,20.526    81.087,25.128 76.485,29.728  "></polygon></g><g><path d="M145.756,17.36h-27.513c-0.688,0-1.244,0.557-1.244,1.244v24.793c0,0.688,0.556,1.243,1.244,1.243h27.513   c0.688,0,1.244-0.556,1.244-1.243V18.604C147,17.917,146.444,17.36,145.756,17.36z M145.018,42.774h-26.036V20.469h26.036V42.774z"></path><rect x="129.085" y="31.661" width="5.829" height="0.933"></rect><polygon points="123.273,32.127 126.725,28.676 126.737,28.688 127.384,28.018 127.396,28.005 123.273,23.908 122.614,24.566    126.065,28.018 122.614,31.468  "></polygon></g><g><path d="M172.171,21.347h-18.342c-0.458,0-0.829,0.371-0.829,0.829v16.528c0,0.458,0.371,0.829,0.829,0.829h18.342   c0.458,0,0.829-0.371,0.829-0.829V22.176C173,21.718,172.629,21.347,172.171,21.347z M171.679,38.29h-17.357V23.42h17.357V38.29z"></path><rect x="161.057" y="30.881" width="3.886" height="0.622"></rect><polygon points="157.182,31.192 159.483,28.891 159.491,28.899 159.923,28.452 159.931,28.444 157.182,25.712 156.743,26.151    159.043,28.452 156.743,30.752  "></polygon></g></svg></g><line x1="41" y1="1" x2="41" y2="28" stroke="#ffffff" stroke-linecap="round"></line><path fill="#ffffff" fill-rule="nonzero" d="M6.36 16.70L3.46 16.70Q3.36 16.70 3.34 16.58L3.34 16.58L0.02 0.10Q0 0 0.12 0L0.12 0L2.83 0Q2.93 0 2.95 0.10L2.95 0.10L4.92 11.09L6.84 0.10Q6.86 0 6.96 0L6.96 0L9.65 0Q9.77 0 9.74 0.10L9.74 0.10L6.48 16.58Q6.46 16.70 6.36 16.70L6.36 16.70ZM19.01 16.70L11.26 16.70Q11.16 16.70 11.16 16.58L11.16 16.58L11.18 0.10Q11.18 0 11.28 0L11.28 0L18.98 0Q19.08 0 19.08 0.12L19.08 0.12L19.08 2.81Q19.08 2.90 18.98 2.90L18.98 2.90L14.06 2.90L14.06 6.65L18.98 6.65Q19.08 6.65 19.08 6.74L19.08 6.74L19.10 9.46Q19.10 9.55 19.01 9.55L19.01 9.55L14.06 9.55L14.06 13.75L19.01 13.75Q19.10 13.75 19.10 13.87L19.10 13.87L19.10 16.61Q19.10 16.70 19.01 16.70L19.01 16.70ZM24.05 16.70L21.34 16.70Q21.24 16.70 21.24 16.58L21.24 16.58L21.29 0.10Q21.29 0 21.38 0L21.38 0L26.23 0Q27.53 0 28.62 0.64Q29.71 1.27 30.36 2.34Q31.01 3.41 31.01 4.75L31.01 4.75Q31.01 5.64 30.74 6.35Q30.48 7.06 30.12 7.55Q29.76 8.04 29.47 8.28L29.47 8.28Q30.77 9.72 30.77 11.66L30.77 11.66L30.79 16.58Q30.79 16.70 30.67 16.70L30.67 16.70L27.96 16.70Q27.86 16.70 27.86 16.63L27.86 16.63L27.86 11.66Q27.86 10.80 27.25 10.16Q26.64 9.53 25.75 9.53L25.75 9.53L24.17 9.53L24.14 16.58Q24.14 16.70 24.05 16.70L24.05 16.70ZM24.17 2.88L24.17 6.65L26.23 6.65Q26.98 6.65 27.55 6.10Q28.13 5.54 28.13 4.75L28.13 4.75Q28.13 3.98 27.56 3.43Q27 2.88 26.23 2.88L26.23 2.88L24.17 2.88ZM35.62 16.70L32.90 16.70Q32.81 16.70 32.81 16.58L32.81 16.58L32.86 0.10Q32.86 0 32.95 0L32.95 0L37.80 0Q39.10 0 40.19 0.64Q41.28 1.27 41.93 2.34Q42.58 3.41 42.58 4.75L42.58 4.75Q42.58 5.64 42.31 6.35Q42.05 7.06 41.69 7.55Q41.33 8.04 41.04 8.28L41.04 8.28Q42.34 9.72 42.34 11.66L42.34 11.66L42.36 16.58Q42.36 16.70 42.24 16.70L42.24 16.70L39.53 16.70Q39.43 16.70 39.43 16.63L39.43 16.63L39.43 11.66Q39.43 10.80 38.82 10.16Q38.21 9.53 37.32 9.53L37.32 9.53L35.74 9.53L35.71 16.58Q35.71 16.70 35.62 16.70L35.62 16.70ZM35.74 2.88L35.74 6.65L37.80 6.65Q38.54 6.65 39.12 6.10Q39.70 5.54 39.70 4.75L39.70 4.75Q39.70 3.98 39.13 3.43Q38.57 2.88 37.80 2.88L37.80 2.88L35.74 2.88ZM47.21 16.70L44.50 16.70Q44.38 16.70 44.38 16.58L44.38 16.58L44.40 0.10Q44.40 0 44.50 0L44.50 0L47.18 0Q47.28 0 47.28 0.10L47.28 0.10L47.30 16.58Q47.30 16.70 47.21 16.70L47.21 16.70ZM57.26 16.70L49.51 16.70Q49.42 16.70 49.42 16.58L49.42 16.58L49.44 0.10Q49.44 0 49.54 0L49.54 0L57.24 0Q57.34 0 57.34 0.12L57.34 0.12L57.34 2.81Q57.34 2.90 57.24 2.90L57.24 2.90L52.32 2.90L52.32 6.65L57.24 6.65Q57.34 6.65 57.34 6.74L57.34 6.74L57.36 9.46Q57.36 9.55 57.26 9.55L57.26 9.55L52.32 9.55L52.32 13.75L57.26 13.75Q57.36 13.75 57.36 13.87L57.36 13.87L57.36 16.61Q57.36 16.70 57.26 16.70L57.26 16.70ZM62.30 16.70L59.59 16.70Q59.50 16.70 59.50 16.58L59.50 16.58L59.54 0.10Q59.54 0 59.64 0L59.64 0L64.49 0Q65.78 0 66.88 0.64Q67.97 1.27 68.62 2.34Q69.26 3.41 69.26 4.75L69.26 4.75Q69.26 5.64 69 6.35Q68.74 7.06 68.38 7.55Q68.02 8.04 67.73 8.28L67.73 8.28Q69.02 9.72 69.02 11.66L69.02 11.66L69.05 16.58Q69.05 16.70 68.93 16.70L68.93 16.70L66.22 16.70Q66.12 16.70 66.12 16.63L66.12 16.63L66.12 11.66Q66.12 10.80 65.51 10.16Q64.90 9.53 64.01 9.53L64.01 9.53L62.42 9.53L62.40 16.58Q62.40 16.70 62.30 16.70L62.30 16.70ZM62.42 2.88L62.42 6.65L64.49 6.65Q65.23 6.65 65.81 6.10Q66.38 5.54 66.38 4.75L66.38 4.75Q66.38 3.98 65.82 3.43Q65.26 2.88 64.49 2.88L64.49 2.88L62.42 2.88Z" transform="translate(51, 6.148)"></path></svg>